<svg xmlns="http://www.w3.org/2000/svg" viewBox="0 0 512 512" width="512" height="512" fill="none" stroke-linejoin="round" stroke-linecap="round">
  <!-- Laptop screen -->
  <rect x="70" y="250" width="372" height="152" rx="16" fill="#79D0CE" stroke="#2F4858" stroke-width="14"/>
  <g stroke="#2F4858" stroke-width="14">
    <line x1="102" y1="292" x2="298" y2="292"/>
    <line x1="102" y1="328" x2="298" y2="328"/>
    <line x1="102" y1="364" x2="252" y2="364"/>
  </g>
  <rect x="322" y="280" width="92" height="94" rx="8" fill="#FFFFFF" stroke="#2F4858" stroke-width="12"/>
  <!-- Laptop base -->
  <rect x="44" y="400" width="424" height="46" rx="22" fill="#F4796B" stroke="#2F4858" stroke-width="14"/>
  <!-- Admonition speech bubble -->
  <path d="M112 44 H356 a28 28 0 0 1 28 28 V160 a28 28 0 0 1 -28 28 H210 L168 232 V188 H112 a28 28 0 0 1 -28 -28 V72 a28 28 0 0 1 28 -28 Z"
        fill="#F7CE68" stroke="#2F4858" stroke-width="14"/>
  <!-- Warning diamond + exclamation -->
  <rect x="188" y="70" width="92" height="92" rx="12" transform="rotate(45 234 116)" fill="#F4796B" stroke="#2F4858" stroke-width="12"/>
  <rect x="225" y="88" width="18" height="36" rx="9" fill="#FFFFFF"/>
  <circle cx="234" cy="140" r="10" fill="#FFFFFF"/>
</svg>
